<?xml version="1.0" encoding="utf-8"?>
<!-- Generator: Adobe Illustrator 18.1.1, SVG Export Plug-In . SVG Version: 6.00 Build 0)  -->
<svg version="1.1" baseProfile="tiny" id="Слой_1"
	 xmlns="http://www.w3.org/2000/svg" xmlns:xlink="http://www.w3.org/1999/xlink" x="0px" y="0px" viewBox="0 0 127.6 48.6"
	 xml:space="preserve">
<path fill="#343a4a" d="M71.8,36.9c-3.7,0-6.8-1.2-9.1-3.5c-2.2-2.3-3.4-5.4-3.4-9.1c0-3.4,1.2-6.6,3.5-8.9c2.3-2.4,5.5-3.7,9.1-3.7
	c4.3,0,8,1.8,9.9,4.7c0.1,0.2,0.1,0.4-0.1,0.6l-3.5,3.2c-0.2,0.2-0.5,0.2-0.7-0.1c-1.2-1.5-3.3-2.5-5.2-2.5c-4,0-6.6,2.6-6.6,6.6
	c0,3.9,2.7,6.6,6.5,6.6c2.4,0,4.5-1,6.1-2.9c0.2-0.2,0.5-0.2,0.7,0l3.1,3.3c0.2,0.2,0.2,0.4,0,0.6C80,35,76.1,36.9,71.8,36.9"/>
<path fill="#343a4a" d="M85.8,35.8v-23c0-0.4,0.3-0.7,0.7-0.7h15.4c0.4,0,0.7,0.3,0.7,0.7v4.4c0,0.4-0.3,0.7-0.7,0.7h-9.8v17.9
	c0,0.4-0.3,0.7-0.7,0.7h-4.9C86.1,36.5,85.8,36.2,85.8,35.8"/>
<path fill="#343a4a" d="M28,0C13.7,0.4,7.5,14,10.4,23.4c0,0.1,0.2,0.2,0.3,0c2-6.9,6.8-11.4,12.4-13.2C35,6.6,45.2,13.6,48,23.5
	c0.5,1.7,0.6,3.7,0.6,5.5c0,0.2,0.3,0.3,0.4,0C52.2,16.1,42.2-0.4,28,0"/>
<path fill="#343a4a" d="M2.6,33.1c7.5,12.2,22.4,10.8,29.1,3.5c0,0,0-0.3-0.1-0.3c-7,1.7-13.3-0.2-17.6-4.1
	C4.9,23.8,5.8,11.5,13,4.1c1.3-1.3,2.9-2.3,4.4-3.3c0.2-0.1,0.1-0.4-0.2-0.4C4.5,4.2-4.8,21.1,2.6,33.1"/>
<path fill="#343a4a" d="M44,38.6c6.8-12.6-1.8-24.8-11.5-27c-0.1,0-0.3,0.1-0.2,0.2c5,5.2,6.5,11.6,5.2,17.3
	c-2.7,12.2-13.9,17.5-23.8,15c-1.8-0.4-3.5-1.4-5-2.2c-0.2-0.1-0.4,0.2-0.2,0.3C18,51.5,37.3,51.1,44,38.6"/>
<path fill="#343a4a" d="M106,12.1h5c0.4,0,0.7,0.3,0.7,0.7V21c0,0.3,0.4,0.5,0.6,0.2l7.6-8.9c0.1-0.1,0.3-0.2,0.5-0.2h6
	c0.6,0,0.8,0.5,0.4,1L118,23l0.9,0c0.2,0,0.4,0.1,0.6,0.3l7.9,12.2c0.3,0.4,0.4,1-0.3,1h-6.5c-0.2,0-0.4-0.1-0.6-0.3l-5.6-8.5
	c-0.1-0.2-0.3-0.2-0.5,0l-2.2,2.5c-0.1,0.1-0.2,0.3-0.2,0.4v5.3c0,0.4-0.3,0.7-0.7,0.7h-5c-0.4,0-0.7-0.3-0.7-0.7v-23
	C105.3,12.4,105.6,12.1,106,12.1"/>
</svg>
