<svg xmlns="http://www.w3.org/2000/svg" width="50" height="50" viewBox="0 0 50 50">
    <g fill="#FFF" fill-rule="evenodd">
        <path d="M17 39.018c0 .58.425 1.002 1.007 1.002h4.077V38h-4.077c-.582 0-1.007.423-1.007 1.018"/>
        <path d="M40.478 39.778h5.842v2.655h-5.842c-2.043 0-3.37-1.229-3.37-3.17V34.21c0-1.926 1.327-3.185 3.37-3.185h6.545l-1.541 2.655h-5.004c-.32 0-.549.197-.549.53v5.053c0 .334.229.515.55.515zm-10.472 0h5.842v2.655h-5.842c-2.044 0-3.371-1.229-3.371-3.17V34.21c0-1.926 1.327-3.185 3.371-3.185h6.544l-1.54 2.655h-5.004c-.32 0-.549.197-.549.53v5.053c0 .334.229.515.55.515zm-5.103 2.655h-7.246c-2.029 0-3.523-1.486-3.523-3.505 0-2.017 1.494-3.504 3.523-3.504h4.424V34.21c0-.333-.198-.53-.534-.53h-6.819l1.542-2.655h5.277c2.03 0 3.356 1.26 3.356 3.185v8.223zM9.887 33.68v8.753H7.065V33.68H3.114v-2.655h11.273l-1.54 2.655h-2.96zM0 49.442h49.73V0H0v49.442z"/>
    </g>
</svg>
